<svg xmlns="http://www.w3.org/2000/svg" viewBox="0 0 1254 1254" fill="none">
  <path d="M 620 180 L 611 181 L 607 182 L 598 185 L 593 187 L 591 188 L 583 194 L 562 207 L 557 209 L 536 222 L 523 230 L 502 244 L 447 277 L 431 288 L 410 300 L 381 318 L 378 320 L 375 322 L 363 334 L 361 337 L 359 340 L 358 342 L 357 344 L 355 349 L 354 352 L 353 355 L 352 360 L 352 529 L 353 531 L 356 534 L 362 534 L 364 534 L 366 533 L 371 530 L 384 522 L 413 503 L 442 486 L 450 480 L 474 465 L 495 453 L 538 425 L 554 416 L 562 410 L 570 405 L 578 400 L 586 396 L 594 391 L 602 385 L 610 381 L 618 376 L 629 368 L 635 365 L 639 364 L 651 364 L 655 365 L 661 368 L 669 373 L 684 382 L 704 395 L 709 397 L 724 407 L 739 415 L 772 436 L 777 438 L 785 443 L 788 446 L 789 448 L 789 454 L 788 457 L 784 461 L 779 464 L 765 472 L 716 503 L 686 523 L 629 559 L 613 568 L 605 573 L 594 580 L 591 583 L 589 586 L 588 588 L 587 591 L 586 596 L 586 729 L 587 733 L 588 736 L 590 739 L 592 742 L 595 745 L 598 747 L 601 749 L 604 750 L 607 752 L 609 754 L 607 756 L 602 759 L 591 765 L 533 800 L 512 813 L 504 819 L 491 826 L 483 832 L 470 839 L 462 845 L 446 854 L 430 864 L 379 897 L 371 901 L 367 904 L 365 907 L 364 910 L 364 916 L 365 918 L 366 920 L 371 925 L 379 930 L 392 937 L 405 946 L 418 953 L 431 962 L 449 973 L 454 975 L 462 981 L 475 989 L 501 1004 L 540 1029 L 548 1033 L 553 1035 L 556 1036 L 560 1037 L 565 1038 L 589 1038 L 594 1037 L 598 1036 L 601 1035 L 604 1034 L 608 1032 L 614 1029 L 622 1024 L 635 1016 L 677 989 L 690 982 L 703 973 L 711 968 L 716 966 L 734 955 L 760 939 L 809 908 L 840 889 L 845 886 L 855 881 L 858 879 L 861 877 L 865 874 L 875 864 L 878 860 L 881 856 L 885 849 L 886 847 L 887 845 L 889 840 L 890 837 L 891 834 L 892 830 L 893 826 L 894 817 L 894 806 L 893 798 L 892 794 L 891 790 L 888 781 L 884 773 L 881 768 L 879 765 L 874 759 L 867 752 L 863 749 L 854 743 L 833 730 L 812 718 L 791 704 L 778 697 L 757 684 L 749 679 L 742 674 L 744 672 L 747 670 L 762 662 L 780 650 L 798 640 L 847 609 L 860 601 L 865 599 L 874 593 L 879 589 L 892 576 L 896 571 L 898 568 L 900 565 L 903 560 L 905 556 L 908 550 L 911 542 L 912 538 L 914 530 L 915 524 L 916 513 L 916 392 L 915 381 L 914 376 L 913 371 L 909 359 L 906 352 L 903 346 L 900 341 L 898 338 L 895 334 L 891 329 L 881 319 L 876 315 L 867 309 L 860 305 L 846 297 L 806 275 L 787 263 L 780 260 L 761 249 L 735 233 L 709 219 L 690 208 L 659 189 L 653 186 L 645 183 L 641 182 L 636 181 L 629 180 Z" fill="#000000"/>
</svg>